# xmcd
#
# Track frame offsets: 
#        150
#        13466
#        31435
#        44651
#        53367
#        73190
#        90023
#        103633
#        120774
#        133630
#        151188
#
# Disc length: 2259 seconds
#
# Revision: 1
# Processed by: cddbd v1.5.2PL0 Copyright (c) Steve Scherf et al.
# Submitted via: ExactAudioCopy v0.99pb5
#
DISCID=8308d10b
DTITLE=Dirty Blues Band - Dirty Blues Band
DYEAR=1967
DGENRE=Blues
TTITLE0=Don´t Start Me Talkin´
TTITLE1=What Is Soul Babe
TTITLE2=Hound Dog
TTITLE3=New Orleans Woman
TTITLE4=I´ll Do Anything Babe
TTITLE5=Checkin´Up My Baby
TTITLE6=Shake It Babe
TTITLE7=Worry Worry Blues
TTITLE8=Born Under Bad Sign
TTITLE9=Spoonful
TTITLE10=Chicken Shack
EXTD=
EXTT0=
EXTT1=
EXTT2=
EXTT3=
EXTT4=
EXTT5=
EXTT6=
EXTT7=
EXTT8=
EXTT9=
EXTT10=
PLAYORDER=
